<svg width="21" height="21" fill="none" xmlns="http://www.w3.org/2000/svg"><g clip-path="url(#clip0_4_258)"><path d="M10.735 20.385c5.523 0 10-4.477 10-10s-4.477-10-10-10-10 4.477-10 10 4.477 10 10 10z" fill="url(#paint0_linear_4_258)"/><path d="M8.902 14.968c-.324 0-.269-.122-.38-.43l-.953-3.136 7.333-4.35" fill="#C8DAEA"/><path d="M8.902 14.968c.25 0 .36-.114.5-.25l1.333-1.296-1.663-1.003" fill="#A9C9DD"/><path d="M9.072 12.42l4.03 2.976c.46.254.792.123.906-.426l1.64-7.73c.169-.674-.256-.98-.696-.78L5.32 10.175c-.658.263-.654.63-.12.794l2.472.771 5.722-3.61c.27-.164.518-.076.315.105" fill="url(#paint1_linear_4_258)"/></g><defs><linearGradient id="paint0_linear_4_258" x1="14.069" y1="3.719" x2="9.069" y2="15.385" gradientUnits="userSpaceOnUse"><stop stop-color="#37AEE2"/><stop offset="1" stop-color="#1E96C8"/></linearGradient><linearGradient id="paint1_linear_4_258" x1="11.986" y1="10.385" x2="13.551" y2="13.946" gradientUnits="userSpaceOnUse"><stop stop-color="#EFF7FC"/><stop offset="1" stop-color="#fff"/></linearGradient><clipPath id="clip0_4_258"><path fill="#fff" transform="translate(.735 .385)" d="M0 0h20v20H0z"/></clipPath></defs></svg>