<svg width="21" height="21" fill="none" xmlns="http://www.w3.org/2000/svg"><path fill-rule="evenodd" clip-rule="evenodd" d="M20.734 15.31c0 .11-.004.346-.01.53-.016.449-.052 1.027-.105 1.292-.073.375-.195.74-.363 1.083a3.853 3.853 0 01-1.697 1.694 4.31 4.31 0 01-1.088.363c-.262.052-.837.087-1.282.102-.184.007-.421.01-.53.01H5.81c-.11 0-.347-.003-.53-.01-.45-.016-1.028-.051-1.293-.105a4.305 4.305 0 01-1.082-.362A3.854 3.854 0 011.21 18.21a4.313 4.313 0 01-.362-1.09c-.053-.26-.088-.836-.103-1.282-.007-.183-.01-.42-.01-.53V5.46c0-.11.003-.347.01-.53.015-.45.05-1.027.105-1.292.072-.376.195-.74.364-1.083A3.854 3.854 0 012.91.861 4.248 4.248 0 014 .498c.262-.052.836-.087 1.282-.103.184-.007.421-.01.53-.01h9.848c.11 0 .347.003.53.01.45.016 1.028.052 1.292.105.376.073.74.195 1.083.364.73.371 1.325.966 1.695 1.697.168.345.29.711.362 1.089.053.261.088.836.103 1.282.006.183.01.421.01.53l-.001 9.848z" fill="url(#paint0_linear_4_249)"/><path fill-rule="evenodd" clip-rule="evenodd" d="M15.995 5.173a7.084 7.084 0 00-5.043-2.09c-3.93 0-7.128 3.196-7.13 7.126a7.112 7.112 0 00.952 3.561l-1.011 3.695 3.779-.99a7.127 7.127 0 003.407.867h.003c3.93 0 7.128-3.198 7.13-7.127a7.081 7.081 0 00-2.087-5.042zm-5.043 10.964h-.002a5.918 5.918 0 01-3.016-.825l-.217-.129-2.242.589.598-2.186-.14-.223a5.908 5.908 0 01-.907-3.152 5.933 5.933 0 015.928-5.924 5.924 5.924 0 11-.002 11.85zm3.25-4.436c-.178-.09-1.054-.52-1.217-.58-.164-.059-.282-.088-.4.09-.12.178-.461.579-.565.698-.104.119-.208.133-.386.044-.178-.089-.753-.277-1.432-.883a5.399 5.399 0 01-.991-1.233c-.104-.178-.011-.274.078-.364.08-.08.178-.207.267-.312.089-.104.119-.178.178-.297.06-.119.03-.223-.015-.312-.044-.089-.4-.965-.548-1.322-.144-.347-.291-.3-.4-.306a7.17 7.17 0 00-.343-.006.654.654 0 00-.475.223c-.163.178-.623.61-.623 1.486s.638 1.723.727 1.841c.09.12 1.256 1.918 3.043 2.69.332.143.67.269 1.015.376.427.137.815.116 1.123.07.342-.05 1.053-.43 1.202-.846.148-.416.148-.773.103-.847-.046-.074-.162-.12-.34-.21z" fill="#fff"/><defs><linearGradient id="paint0_linear_4_249" x1="10.735" y1="20.385" x2="10.735" y2=".385" gradientUnits="userSpaceOnUse"><stop stop-color="#25CF43"/><stop offset="1" stop-color="#61FD7D"/></linearGradient></defs></svg>