<svg width="59" height="58" fill="none" xmlns="http://www.w3.org/2000/svg"><g filter="url(#filter0_d_9_118)"><ellipse cx="29.197" cy="29" rx="6" ry="5.862" fill="#322FAF"/></g><g filter="url(#filter1_d_9_118)"><path d="M41.714 29c0 6.737-5.593 12.218-12.517 12.218-6.924 0-12.517-5.481-12.517-12.218s5.593-12.218 12.517-12.218c6.924 0 12.517 5.481 12.517 12.218z" stroke="#322FAF" stroke-opacity=".7" shape-rendering="crispEdges"/></g><g filter="url(#filter2_d_9_118)"><path d="M47.894 29c0 10.072-8.36 18.256-18.697 18.256S10.5 39.072 10.5 29c0-10.072 8.36-18.256 18.697-18.256S47.894 18.928 47.894 29z" stroke="#322FAF" stroke-opacity=".4" shape-rendering="crispEdges"/></g><defs><filter id="filter0_d_9_118" x="3.197" y="3.138" width="52" height="51.724" filterUnits="userSpaceOnUse" color-interpolation-filters="sRGB"><feFlood flood-opacity="0" result="BackgroundImageFix"/><feColorMatrix in="SourceAlpha" values="0 0 0 0 0 0 0 0 0 0 0 0 0 0 0 0 0 0 127 0" result="hardAlpha"/><feOffset/><feGaussianBlur stdDeviation="10"/><feComposite in2="hardAlpha" operator="out"/><feColorMatrix values="0 0 0 0 0.196078 0 0 0 0 0.184314 0 0 0 0 0.686275 0 0 0 0.8 0"/><feBlend in2="BackgroundImageFix" result="effect1_dropShadow_9_118"/><feBlend in="SourceGraphic" in2="effect1_dropShadow_9_118" result="shape"/></filter><filter id="filter1_d_9_118" x="6.18" y="6.282" width="46.034" height="45.436" filterUnits="userSpaceOnUse" color-interpolation-filters="sRGB"><feFlood flood-opacity="0" result="BackgroundImageFix"/><feColorMatrix in="SourceAlpha" values="0 0 0 0 0 0 0 0 0 0 0 0 0 0 0 0 0 0 127 0" result="hardAlpha"/><feOffset/><feGaussianBlur stdDeviation="5"/><feComposite in2="hardAlpha" operator="out"/><feColorMatrix values="0 0 0 0 1 0 0 0 0 1 0 0 0 0 1 0 0 0 1 0"/><feBlend in2="BackgroundImageFix" result="effect1_dropShadow_9_118"/><feBlend in="SourceGraphic" in2="effect1_dropShadow_9_118" result="shape"/></filter><filter id="filter2_d_9_118" x="0" y=".244" width="58.394" height="57.513" filterUnits="userSpaceOnUse" color-interpolation-filters="sRGB"><feFlood flood-opacity="0" result="BackgroundImageFix"/><feColorMatrix in="SourceAlpha" values="0 0 0 0 0 0 0 0 0 0 0 0 0 0 0 0 0 0 127 0" result="hardAlpha"/><feOffset/><feGaussianBlur stdDeviation="5"/><feComposite in2="hardAlpha" operator="out"/><feColorMatrix values="0 0 0 0 1 0 0 0 0 1 0 0 0 0 1 0 0 0 1 0"/><feBlend in2="BackgroundImageFix" result="effect1_dropShadow_9_118"/><feBlend in="SourceGraphic" in2="effect1_dropShadow_9_118" result="shape"/></filter></defs></svg>