<svg width="29" height="29" viewBox="0 0 29 29" fill="none" xmlns="http://www.w3.org/2000/svg">
<path d="M8.89966 0.384949C4.3975 0.384949 0.735275 4.05056 0.735275 8.55389V20.2206C0.735275 24.7227 4.40089 28.3849 8.90422 28.3849H20.5709C25.0731 28.3849 28.7353 24.7193 28.7353 20.216V8.54934C28.7353 4.04717 25.0697 0.384949 20.5663 0.384949H8.89966ZM22.9019 5.05162C23.5459 5.05162 24.0686 5.57428 24.0686 6.21828C24.0686 6.86228 23.5459 7.38495 22.9019 7.38495C22.2579 7.38495 21.7353 6.86228 21.7353 6.21828C21.7353 5.57428 22.2579 5.05162 22.9019 5.05162ZM14.7353 7.38495C18.5958 7.38495 21.7353 10.5244 21.7353 14.3849C21.7353 18.2454 18.5958 21.3849 14.7353 21.3849C10.8748 21.3849 7.73528 18.2454 7.73528 14.3849C7.73528 10.5244 10.8748 7.38495 14.7353 7.38495ZM14.7353 9.71828C13.4976 9.71828 12.3106 10.2099 11.4354 11.0851C10.5603 11.9603 10.0686 13.1473 10.0686 14.3849C10.0686 15.6226 10.5603 16.8096 11.4354 17.6848C12.3106 18.5599 13.4976 19.0516 14.7353 19.0516C15.973 19.0516 17.1599 18.5599 18.0351 17.6848C18.9103 16.8096 19.4019 15.6226 19.4019 14.3849C19.4019 13.1473 18.9103 11.9603 18.0351 11.0851C17.1599 10.2099 15.973 9.71828 14.7353 9.71828Z" fill="#87C569"/>
</svg>
