<svg width="21" height="21" viewBox="0 0 21 21" fill="none" xmlns="http://www.w3.org/2000/svg">
<path fill-rule="evenodd" clip-rule="evenodd" d="M20.7339 15.3096C20.7339 15.4192 20.7305 15.6565 20.724 15.8401C20.7079 16.289 20.6723 16.8674 20.6185 17.1321C20.5463 17.5074 20.4245 17.8714 20.2562 18.2146C19.8853 18.9456 19.2909 19.5392 18.5594 19.9093C18.2143 20.078 17.8482 20.1999 17.4708 20.2716C17.2095 20.3243 16.6345 20.3593 16.1887 20.3743C16.0051 20.3808 15.7675 20.3843 15.6586 20.3843H5.81061C5.70103 20.3843 5.46372 20.3808 5.28017 20.3743C4.83123 20.3582 4.25284 20.3226 3.98813 20.2689C3.61282 20.1967 3.2488 20.0749 2.90567 19.9066C2.17466 19.5356 1.58099 18.9412 1.21093 18.2098C1.04215 17.8644 0.920302 17.4981 0.848624 17.1204C0.795888 16.8592 0.760958 16.2842 0.745891 15.8383C0.7387 15.6548 0.735275 15.4182 0.735275 15.3082V5.46029C0.735275 5.35071 0.7387 5.11339 0.745206 4.92984C0.761301 4.4809 0.796915 3.90252 0.850678 3.63781C0.92339 3.26242 1.04581 2.89839 1.21469 2.55535C1.58555 1.82439 2.17982 1.23072 2.91115 0.860601C3.25628 0.691911 3.62239 0.570066 3.99978 0.498297C4.26243 0.445561 4.83602 0.410632 5.28188 0.39488C5.46577 0.388373 5.70309 0.384949 5.81233 0.384949H15.6599C15.7695 0.384949 16.0068 0.388373 16.1904 0.39488C16.6393 0.410974 17.2177 0.446588 17.4824 0.500352C17.8578 0.573055 18.2218 0.695472 18.5649 0.864368C19.2959 1.23531 19.8896 1.82971 20.2596 2.56117C20.4283 2.90629 20.5502 3.2724 20.6219 3.64979C20.6747 3.91108 20.7096 4.48604 20.7247 4.9319C20.7312 5.11545 20.7346 5.3531 20.7346 5.462L20.7339 15.3096Z" fill="url(#paint0_linear_4_249)"/>
<path fill-rule="evenodd" clip-rule="evenodd" d="M15.9952 5.17264C15.3345 4.50823 14.5486 3.9815 13.6829 3.62294C12.8172 3.26437 11.889 3.0811 10.952 3.08374C7.02251 3.08237 3.8241 6.27941 3.82273 10.2089C3.82145 11.4591 4.14969 12.6875 4.77438 13.7703L3.7628 17.4653L7.542 16.4743C8.58738 17.0434 9.75868 17.3416 10.949 17.3417H10.952C14.8812 17.3417 18.0796 14.1443 18.0813 10.2148C18.0843 9.27813 17.9014 8.35022 17.5433 7.48473C17.1852 6.61925 16.659 5.83339 15.9952 5.17264ZM10.952 16.1373H10.9496C9.8885 16.1375 8.84684 15.8523 7.93375 15.3117L7.71733 15.1833L5.47467 15.7719L6.07326 13.5861L5.93252 13.3635C5.339 12.4193 5.02486 11.3263 5.02641 10.211C5.02641 6.94478 7.68582 4.28674 10.9544 4.28674C11.7325 4.28687 12.5029 4.44028 13.2217 4.73819C13.9405 5.0361 14.5935 5.47268 15.1436 6.023C15.6936 6.57332 16.1299 7.22661 16.4274 7.94554C16.7249 8.66447 16.8779 9.43498 16.8777 10.213C16.8763 13.4806 14.2179 16.1373 10.952 16.1373ZM14.2022 11.701C14.0241 11.6119 13.1481 11.1811 12.9848 11.1215C12.8214 11.062 12.7026 11.0325 12.5841 11.2106C12.4656 11.3887 12.1239 11.79 12.0201 11.9088C11.9164 12.0276 11.8123 12.0424 11.6342 11.9533C11.4561 11.8643 10.8808 11.6763 10.2017 11.0695C9.67233 10.5973 9.31482 10.0141 9.21072 9.8367C9.10661 9.65932 9.19976 9.56275 9.28879 9.47337C9.36893 9.39358 9.46686 9.26551 9.5559 9.16141C9.64493 9.0573 9.67473 8.98299 9.73397 8.86417C9.79321 8.74534 9.76376 8.64124 9.71924 8.5522C9.67473 8.46317 9.31859 7.58651 9.17134 7.23003C9.02683 6.88279 8.87992 6.92971 8.77068 6.92423C8.66795 6.91909 8.54809 6.91807 8.42824 6.91807C8.33797 6.92045 8.24917 6.94148 8.16743 6.97985C8.08569 7.01821 8.01277 7.07308 7.95327 7.141C7.78992 7.31941 7.32968 7.7502 7.32968 8.62651C7.32968 9.50282 7.96799 10.3497 8.05703 10.4685C8.14606 10.5873 9.31311 12.3862 11.1 13.1574C11.4315 13.3007 11.7705 13.4265 12.1153 13.5341C12.542 13.671 12.9303 13.6505 13.2375 13.6046C13.5799 13.5536 14.2915 13.1738 14.4398 12.7577C14.5881 12.3417 14.5881 11.9852 14.5425 11.9109C14.497 11.8366 14.3806 11.7907 14.2025 11.7013L14.2022 11.701Z" fill="white"/>
<defs>
<linearGradient id="paint0_linear_4_249" x1="10.7353" y1="20.385" x2="10.7353" y2="0.384949" gradientUnits="userSpaceOnUse">
<stop stop-color="#25CF43"/>
<stop offset="1" stop-color="#61FD7D"/>
</linearGradient>
</defs>
</svg>
