<svg width="0" height="0" class="hidden">
  <symbol xmlns="http://www.w3.org/2000/svg" viewBox="0 0 20 20" id="facebook">
    <path fill="currentColor" d="M11.25 6.875v-2.5c0-.69.561-1.25 1.25-1.25h1.25V0h-2.5A3.75 3.75 0 007.5 3.75v3.125H5V10h2.5v10h3.75V10h2.5L15 6.875h-3.75z"></path>
  </symbol>
  <symbol xmlns="http://www.w3.org/2000/svg" viewBox="0 0 20 20" id="instagram">
    <path fill="currentColor" d="M13.75 0h-7.5A6.251 6.251 0 000 6.25v7.5A6.251 6.251 0 006.25 20h7.5A6.251 6.251 0 0020 13.75v-7.5A6.251 6.251 0 0013.75 0zm4.375 13.75a4.38 4.38 0 01-4.375 4.375h-7.5a4.38 4.38 0 01-4.375-4.375v-7.5A4.38 4.38 0 016.25 1.875h7.5a4.38 4.38 0 014.375 4.375v7.5z"></path>
    <path fill="currentColor" d="M10 5a5 5 0 10.001 10.001A5 5 0 0010 5zm0 8.125A3.129 3.129 0 016.875 10c0-1.724 1.402-3.125 3.125-3.125S13.125 8.276 13.125 10A3.129 3.129 0 0110 13.125zm5.375-7.834a.666.666 0 100-1.333.666.666 0 000 1.333z"></path>
  </symbol>
  <symbol xmlns="http://www.w3.org/2000/svg" viewBox="0 0 20 20" id="twitter">
    <path fill="currentColor" d="M20 3.799a8.558 8.558 0 01-2.362.647 4.076 4.076 0 001.804-2.266 8.208 8.208 0 01-2.6.992 4.112 4.112 0 00-2.996-1.297 4.098 4.098 0 00-4.097 4.101c0 .325.028.638.095.935-3.409-.166-6.425-1.8-8.451-4.289a4.13 4.13 0 00-.562 2.073c0 1.42.731 2.679 1.821 3.408A4.06 4.06 0 01.8 7.598v.045a4.12 4.12 0 003.285 4.029 4.096 4.096 0 01-1.075.135 3.68 3.68 0 01-.776-.07c.531 1.623 2.039 2.817 3.831 2.855a8.234 8.234 0 01-5.083 1.75c-.336 0-.659-.016-.981-.057a11.537 11.537 0 006.29 1.84c7.545 0 11.67-6.25 11.67-11.667 0-.181-.007-.356-.015-.53A8.205 8.205 0 0020 3.799z"></path>
  </symbol>
  <symbol xmlns="http://www.w3.org/2000/svg" viewBox="0 0 20 20" id="youtube">
    <path fill="currentColor" d="M19.15 4.45c-.543-.965-1.131-1.143-2.33-1.21-1.197-.081-4.209-.115-6.818-.115-2.614 0-5.626.034-6.822.114-1.196.069-1.786.245-2.334 1.211C.288 5.414 0 7.074 0 9.996v.01c0 2.91.288 4.583.846 5.537.547.965 1.136 1.14 2.333 1.221 1.198.07 4.21.111 6.824.111 2.609 0 5.621-.041 6.819-.109 1.198-.082 1.788-.257 2.33-1.222.563-.954.848-2.626.848-5.537v-.01c0-2.923-.285-4.583-.85-5.547zM7.5 13.75v-7.5L13.75 10 7.5 13.75z"></path>
  </symbol>
</svg>